<svg
    fill="none"
    stroke="currentColor"
    viewBox="0 0 24 24"
    xmlns="http://www.w3.org/2000/svg"
    stroke-width="2"
    stroke-linecap="round"
    stroke-linejoin="round"
    class="w-24 h-24 mx-auto"
    style="color: #3b82f6;" 
>
    <circle cx="12" cy="12" r="10" fill="#3b82f6" />

    <path
        d="M21 13.255A23.931 23.931 0 0112 15c-3.183 0-6.22-.62-9-1.745M16 6V4a2 2 0 00-2-2h-4a2 2 0 00-2 2v2m4 6h.01M5 20h14a2 2 0 002-2V8a2 2 0 00-2-2H5a2 2 0 00-2 2v10a2 2 0 002 2z"
    />
</svg>
